<svg xmlns="http://www.w3.org/2000/svg" width="32" height="32" viewBox="0 0 24 24" fill="none">
  <defs>
    <linearGradient id="gradient" x1="0" y1="0" x2="32" y2="32" gradientUnits="userSpaceOnUse">
      <stop offset="0%" stop-color="#8B5CF6" />
      <stop offset="50%" stop-color="#EC4899" />
      <stop offset="100%" stop-color="#F472B6" />
    </linearGradient>
  </defs>
  <!-- Sparkles icon from Lucide React -->
  <path d="M9.937 15.5a2 2 0 1 0 .937 2.865l2.126-4.258a2 2 0 1 0-.937-2.865L9.937 15.5Z" fill="url(#gradient)" stroke="url(#gradient)" stroke-width="1.5" stroke-linecap="round" stroke-linejoin="round"/>
  <path d="M13.5 2.5a2 2 0 1 0 .937 2.865l2.126-4.258a2 2 0 1 0-.937-2.865L13.5 2.5Z" fill="url(#gradient)" stroke="url(#gradient)" stroke-width="1.5" stroke-linecap="round" stroke-linejoin="round"/>
  <path d="M19.062 8.5a2 2 0 1 0 .937 2.865l-2.126 4.258a2 2 0 1 0-.937 2.865l2.126-4.258Z" fill="url(#gradient)" stroke="url(#gradient)" stroke-width="1.5" stroke-linecap="round" stroke-linejoin="round"/>
  <path d="M2 2h3v3H2zM19 19h3v3h-3zM2 19h3v3H2zM19 2h3v3h-3z" fill="url(#gradient)"/>
</svg>
